<?xml version="1.0" standalone="no"?>
<!DOCTYPE svg PUBLIC "-//W3C//DTD SVG 20010904//EN"
 "http://www.w3.org/TR/2001/REC-SVG-20010904/DTD/svg10.dtd">
<svg version="1.0" xmlns="http://www.w3.org/2000/svg"
 width="214.000000pt" height="66.000000pt" viewBox="0 0 214.000000 66.000000"
 preserveAspectRatio="xMidYMid meet">

<g transform="translate(0.000000,66.000000) scale(0.100000,-0.100000)"
fill="#000000" stroke="none">
<path d="M595 610 c-217 -5 -226 -8 -75 -29 57 -8 951 -21 1455 -21 l60 0 -2
-242 -2 -243 -753 -2 c-525 -2 -759 -6 -774 -14 -41 -21 -169 37 -201 92 -21
36 -25 36 -40 1 -7 -15 -26 -43 -42 -62 l-29 -35 -26 24 c-15 14 -40 52 -56
85 -26 52 -30 70 -31 150 -1 85 -1 89 -14 61 -14 -30 -14 -30 -16 -5 -4 44
-16 -122 -18 -232 l-1 -108 1040 0 1040 0 0 295 0 295 -647 -2 c-357 -1 -747
-5 -868 -8z"/>
<path d="M378 583 c7 -3 16 -2 19 1 4 3 -2 6 -13 5 -11 0 -14 -3 -6 -6z"/>
<path d="M338 573 c7 -3 16 -2 19 1 4 3 -2 6 -13 5 -11 0 -14 -3 -6 -6z"/>
<path d="M413 547 c-39 -26 -40 -33 -11 -40 15 -4 32 3 55 23 44 39 55 39 18
0 l-29 -30 29 0 c16 0 40 10 54 22 14 13 20 16 14 8 -20 -22 -15 -30 13 -20
14 6 23 6 19 1 -3 -5 -19 -12 -35 -16 -17 -4 -28 -10 -25 -15 3 -5 -12 -6 -32
-3 l-38 6 20 -23 c21 -25 5 -19 -30 10 -33 28 -54 32 -48 9 10 -36 60 -62 106
-56 35 5 50 14 89 59 43 47 61 77 40 64 -4 -2 -34 2 -67 10 -80 18 -104 17
-142 -9z"/>
<path d="M246 551 c-3 -4 7 -19 22 -32 l27 -24 -23 26 c-12 14 -19 29 -15 32
3 4 4 7 0 7 -3 0 -8 -4 -11 -9z"/>
<path d="M351 546 c-17 -9 -20 -14 -9 -18 7 -3 24 3 37 13 27 22 8 25 -28 5z"/>
<path d="M306 505 c4 -8 8 -15 10 -15 2 0 4 7 4 15 0 8 -4 15 -10 15 -5 0 -7
-7 -4 -15z"/>
<path d="M331 507 c2 -1 12 -9 22 -16 15 -12 17 -12 11 3 -3 9 -13 16 -22 16
-8 0 -13 -1 -11 -3z"/>
<path d="M252 484 c-7 -8 -10 -24 -6 -39 l6 -26 14 27 c17 31 6 60 -14 38z"/>
<path d="M206 445 c3 -16 6 -79 8 -140 2 -60 2 -85 0 -55 -7 102 -25 190 -39
190 -19 0 -30 -152 -17 -216 6 -27 9 -50 7 -52 -10 -10 -25 82 -26 153 -1 71
-2 76 -11 45 -10 -35 -6 -148 7 -185 l7 -20 -13 20 c-7 11 -16 56 -20 100 l-6
80 -1 -73 c-1 -46 4 -86 13 -109 20 -47 62 -103 78 -103 17 0 65 80 74 120 4
24 3 31 -5 26 -9 -5 -12 10 -12 52 0 33 -7 79 -15 103 -9 24 -13 49 -10 57 2
7 1 10 -4 7 -5 -3 -12 3 -15 12 -3 10 -3 5 0 -12z"/>
<path d="M305 450 c-26 -28 -15 -31 12 -3 12 13 19 23 14 23 -4 0 -16 -9 -26
-20z"/>
<path d="M356 448 c3 -5 9 -7 12 -4 3 3 12 0 21 -6 13 -10 14 -10 4 2 -15 16
-46 23 -37 8z"/>
<path d="M230 425 c0 -5 5 -17 10 -25 5 -8 10 -10 10 -5 0 6 -5 17 -10 25 -5
8 -10 11 -10 5z"/>
<path d="M423 414 c9 -11 17 -24 17 -29 0 -4 -8 -1 -17 6 -15 11 -15 10 1 -8
10 -13 23 -20 28 -17 5 3 9 0 7 -7 -1 -8 -1 -21 0 -29 1 -13 2 -13 12 0 8 11
9 8 5 -15 -4 -19 -3 -25 2 -17 11 16 9 -149 -2 -166 -10 -17 -38 -15 -62 3
-18 15 -17 15 16 13 27 -2 35 1 35 14 0 9 4 20 8 24 11 12 8 24 -7 24 -23 0
-37 -24 -23 -39 9 -10 8 -11 -6 -5 -9 3 -24 0 -33 -7 -14 -11 -19 -9 -35 11
-22 29 -24 41 -6 34 20 -7 54 22 41 36 -8 8 -18 5 -37 -11 l-27 -21 -15 36
c-8 19 -15 41 -15 47 0 7 -3 9 -6 6 -12 -12 28 -100 65 -141 21 -23 27 -34 14
-25 -54 37 -91 111 -103 209 l-7 65 -2 -81 c-1 -70 3 -88 27 -134 15 -30 38
-62 52 -72 34 -24 133 -60 141 -50 16 16 28 148 18 196 -10 56 -45 121 -80
151 l-24 20 18 -21z m74 -156 c-3 -8 -6 -5 -6 6 -1 11 2 17 5 13 3 -3 4 -12 1
-19z m-62 -156 c-3 -3 -11 0 -18 7 -9 10 -8 11 6 5 10 -3 15 -9 12 -12z"/>
<path d="M315 411 c-3 -6 -1 -11 6 -11 8 0 8 -4 -1 -15 -17 -20 -8 -28 13 -12
14 10 14 15 2 30 -8 12 -15 14 -20 8z"/>
<path d="M599 342 c-2 -39 -1 -72 4 -72 4 0 7 8 7 19 0 10 7 24 15 31 12 10
18 7 32 -19 10 -17 21 -31 26 -31 11 0 9 5 -14 44 l-21 36 22 30 c12 16 18 30
13 30 -4 0 -21 -19 -38 -41 l-30 -41 -6 44 c-4 38 -6 35 -10 -30z"/>
<path d="M730 383 c-22 -29 -22 -72 1 -100 15 -17 73 -17 88 0 23 28 23 71 1
100 -28 35 -62 35 -90 0z m88 -40 c5 -51 -39 -80 -72 -47 -41 40 3 121 49 90
11 -7 21 -27 23 -43z"/>
<path d="M870 340 c0 -72 13 -94 24 -40 3 17 10 30 15 30 6 0 18 -13 28 -30 9
-16 21 -30 25 -30 5 0 -2 18 -14 39 l-23 40 23 30 c32 44 13 39 -25 -6 l-32
-38 -1 38 c0 20 -4 37 -10 37 -6 0 -10 -30 -10 -70z"/>
<path d="M1010 390 c-43 -43 -15 -120 43 -120 36 0 57 25 57 69 0 64 -57 94
-100 51z m82 -26 c28 -61 -51 -112 -80 -51 -12 24 -11 31 2 53 22 33 63 32 78
-2z"/>
<path d="M1240 406 c0 -2 -11 -33 -25 -70 -14 -36 -20 -66 -15 -66 6 0 10 7
10 15 0 22 66 20 79 -2 5 -10 12 -15 15 -12 8 7 -45 139 -56 139 -4 0 -8 -2
-8 -4z m24 -48 c9 -35 8 -38 -14 -38 -11 0 -20 3 -20 8 0 19 13 52 20 52 4 0
10 -10 14 -22z"/>
<path d="M1340 339 l0 -70 43 3 42 3 1 55 c1 66 -8 80 -52 80 l-34 0 0 -71z
m70 31 c0 -16 -7 -20 -30 -20 -23 0 -30 4 -30 20 0 16 7 20 30 20 23 0 30 -4
30 -20z m7 -56 c7 -19 -14 -35 -42 -32 -12 2 -21 12 -23 26 -3 19 1 22 28 22
19 0 33 -6 37 -16z"/>
<path d="M1470 340 l0 -70 48 1 47 2 -40 6 c-32 5 -41 11 -43 29 -3 19 1 22
33 22 22 0 34 4 30 10 -3 6 -19 10 -36 10 -22 0 -29 5 -29 20 0 16 7 20 35 20
19 0 35 5 35 10 0 6 -18 10 -40 10 l-40 0 0 -70z"/>
<path d="M1590 340 c0 -38 4 -70 9 -70 5 0 7 9 4 20 -4 16 0 20 20 20 17 0 28
-7 32 -20 3 -11 11 -20 16 -20 12 0 11 14 -2 27 -8 8 -6 18 6 37 16 24 16 28
1 51 -12 19 -25 25 -51 25 l-35 0 0 -70z m75 20 c0 -21 -5 -25 -30 -25 -25 0
-30 4 -33 28 -3 27 -1 28 30 25 28 -2 33 -7 33 -28z"/>
<path d="M1751 388 c-5 -13 -16 -40 -25 -62 -19 -46 -20 -68 -2 -43 16 21 72
23 80 2 3 -8 9 -15 14 -15 5 0 -2 31 -17 70 -14 38 -29 70 -34 70 -4 0 -11
-10 -16 -22z m39 -60 c0 -5 -11 -8 -24 -8 -24 0 -24 2 -14 31 l11 32 13 -24
c7 -13 13 -27 14 -31z"/>
<path d="M1850 357 c0 -82 41 -117 86 -72 19 19 24 34 24 75 0 27 -4 50 -10
50 -5 0 -10 -24 -10 -54 0 -60 -19 -88 -48 -69 -12 7 -18 27 -20 67 -4 71 -22
74 -22 3z"/>
<path d="M360 390 c0 -5 6 -10 14 -10 8 0 18 5 21 10 3 6 -3 10 -14 10 -12 0
-21 -4 -21 -10z"/>
<path d="M385 366 c-11 -8 -14 -15 -7 -20 12 -7 42 3 42 14 0 16 -17 19 -35 6z"/>
<path d="M292 335 c0 -16 2 -22 5 -12 2 9 2 23 0 30 -3 6 -5 -1 -5 -18z"/>
<path d="M316 344 c-4 -9 -5 -19 -2 -21 7 -7 46 17 46 27 0 17 -37 11 -44 -6z"/>
<path d="M401 326 c-8 -10 -9 -16 -1 -21 15 -9 52 5 47 18 -6 18 -32 20 -46 3z"/>
<path d="M338 319 c-21 -12 -24 -39 -5 -39 22 0 51 26 43 38 -9 14 -16 15 -38
1z"/>
<path d="M421 291 c-20 -13 -6 -42 16 -34 15 5 15 3 -2 -10 -23 -18 -9 -42 18
-31 13 4 16 16 14 43 -2 37 -20 49 -46 32z"/>
<path d="M351 274 c-15 -11 -19 -20 -13 -26 15 -15 52 1 52 23 0 23 -9 24 -39
3z"/>
<path d="M393 203 c-17 -6 -16 -33 1 -33 17 0 38 24 29 33 -7 8 -12 8 -30 0z"/>
<path d="M800 185 c-17 -20 -8 -49 15 -52 16 -1 16 -1 3 3 -10 3 -18 14 -18
24 0 11 8 24 18 29 9 6 12 11 6 11 -6 0 -17 -7 -24 -15z"/>
<path d="M914 186 c-10 -26 0 -51 21 -51 16 0 20 7 20 30 0 33 -30 49 -41 21z
m36 -21 c0 -16 -6 -25 -15 -25 -9 0 -15 9 -15 25 0 16 6 25 15 25 9 0 15 -9
15 -25z"/>
<path d="M980 185 c-15 -18 -3 -55 18 -55 16 1 15 2 0 11 -10 5 -18 16 -18 24
0 8 8 19 18 24 9 6 12 11 6 11 -6 0 -17 -7 -24 -15z"/>
<path d="M1036 191 c-3 -5 2 -8 12 -7 11 1 18 -7 20 -23 3 -20 0 -23 -19 -18
-16 4 -19 3 -11 -5 15 -15 42 -2 42 20 0 30 -32 54 -44 33z"/>
<path d="M1156 183 c-6 -14 -5 -15 5 -6 7 7 10 15 7 18 -3 3 -9 -2 -12 -12z"/>
<path d="M1195 190 c3 -5 12 -7 20 -3 21 7 19 13 -6 13 -11 0 -18 -4 -14 -10z"/>
<path d="M1247 193 c-4 -3 -7 -19 -7 -35 0 -23 4 -28 23 -27 16 1 18 2 5 6
-10 2 -18 8 -18 13 0 5 8 11 18 13 16 4 16 5 0 6 -10 0 -18 5 -18 10 0 5 8 12
18 14 14 4 14 5 1 6 -9 0 -19 -2 -22 -6z"/>
<path d="M1320 165 c0 -30 3 -35 23 -34 16 1 18 2 5 6 -21 5 -23 19 -5 26 10
4 10 6 0 6 -19 1 -16 19 5 24 13 4 11 5 -5 6 -20 1 -23 -4 -23 -34z"/>
<path d="M1370 193 c0 -6 5 -15 10 -18 8 -5 7 -11 -1 -21 -6 -8 -9 -17 -5 -21
3 -3 6 -1 6 6 0 7 6 11 13 8 7 -3 12 4 12 18 0 13 -4 21 -9 18 -4 -3 -12 1
-17 8 -6 9 -9 10 -9 2z"/>
<path d="M1430 191 c0 -6 7 -8 15 -5 10 4 15 0 15 -11 0 -11 -5 -15 -15 -11
-8 3 -15 1 -15 -5 0 -6 8 -9 18 -7 9 2 17 12 17 23 0 11 -8 21 -17 23 -10 2
-18 -1 -18 -7z"/>
<path d="M1484 176 c-3 -14 -3 -30 1 -35 8 -13 32 -14 39 -2 4 5 -3 7 -14 4
-15 -4 -20 0 -20 15 0 26 19 39 32 21 8 -12 9 -11 5 1 -7 26 -36 24 -43 -4z"/>
<path d="M1550 163 c0 -28 3 -34 10 -23 9 13 11 13 19 1 7 -10 9 -4 8 20 -1
23 -7 35 -19 37 -15 3 -18 -4 -18 -35z m30 12 c0 -8 -4 -15 -10 -15 -5 0 -10
7 -10 15 0 8 5 15 10 15 6 0 10 -7 10 -15z"/>
<path d="M1607 192 c6 -4 13 -21 15 -37 3 -29 4 -29 9 8 4 32 2 37 -16 37 -12
0 -16 -3 -8 -8z"/>
<path d="M851 160 c1 -19 3 -27 6 -17 2 9 12 17 21 18 14 0 14 2 2 6 -8 3 -18
11 -22 17 -4 6 -7 -5 -7 -24z"/>
<path d="M1091 163 c-1 -28 2 -33 23 -33 13 0 29 7 36 15 9 10 9 15 1 15 -6 0
-11 -4 -11 -10 0 -5 -9 -10 -19 -10 -14 0 -21 8 -24 28 -4 25 -4 25 -6 -5z"/>
<path d="M1170 158 c0 -9 5 -20 10 -23 13 -8 13 5 0 25 -8 13 -10 13 -10 -2z"/>
</g>
</svg>
