<svg viewBox="0 0 671.56 242.09" xmlns="http://www.w3.org/2000/svg"><defs><style>.cls-1{fill:#1d254b;}</style></defs><title>Asset 1</title><g data-name="Layer 2" id="Layer_2"><g data-name="Signature Artwork" id="Signature_Artwork"><path class="cls-1" d="M203.25,195.7v0a7.08,7.08,0,0,1,7.22-7.24A7.3,7.3,0,0,1,216,190.6l-1.58,1.82a5.57,5.57,0,0,0-3.92-1.74,4.7,4.7,0,0,0-4.62,4.94v0a4.73,4.73,0,0,0,4.62,5,5.49,5.49,0,0,0,4-1.82l1.58,1.61a7.26,7.26,0,0,1-5.68,2.48A7,7,0,0,1,203.25,195.7Z"></path><path class="cls-1" d="M222.63,188.66h2.46v5.82h6.68v-5.82h2.46v14h-2.46v-5.91h-6.68v5.91h-2.46Z"></path><path class="cls-1" d="M241.21,195.7v0a7.32,7.32,0,0,1,14.64,0v0a7.32,7.32,0,0,1-14.64,0Zm12.06,0v0a4.8,4.8,0,0,0-4.76-5,4.73,4.73,0,0,0-4.72,4.94v0a4.8,4.8,0,0,0,4.76,5A4.73,4.73,0,0,0,253.27,195.7Z"></path><path class="cls-1" d="M262.21,195.7v0a7.08,7.08,0,0,1,7.22-7.24,7.3,7.3,0,0,1,5.48,2.18l-1.58,1.82a5.57,5.57,0,0,0-3.92-1.74,4.7,4.7,0,0,0-4.62,4.94v0a4.73,4.73,0,0,0,4.62,5,5.49,5.49,0,0,0,4-1.82l1.58,1.61a7.26,7.26,0,0,1-5.68,2.48A7,7,0,0,1,262.21,195.7Z"></path><path class="cls-1" d="M281,195.7v0a7.32,7.32,0,0,1,14.64,0v0a7.32,7.32,0,0,1-14.64,0Zm12.06,0v0a4.8,4.8,0,0,0-4.76-5,4.73,4.73,0,0,0-4.72,4.94v0a4.8,4.8,0,0,0,4.76,5A4.73,4.73,0,0,0,293,195.7Z"></path><path class="cls-1" d="M302.59,188.66h2.46v11.77h7.36v2.24h-9.82Z"></path><path class="cls-1" d="M323.93,188.56h2.28l6.16,14.11h-2.6l-1.42-3.39h-6.62l-1.44,3.39h-2.52Zm3.52,8.54L325,191.5l-2.4,5.6Z"></path><path class="cls-1" d="M341,190.94h-4.44v-2.28h11.36v2.28h-4.44v11.73H341Z"></path><path class="cls-1" d="M354.53,188.66h10.38v2.2H357v3.64h7v2.2h-7v3.76h8v2.21H354.53Z"></path><path class="cls-1" d="M381.31,195.7v0a7.08,7.08,0,0,1,7.22-7.24A7.3,7.3,0,0,1,394,190.6l-1.58,1.82a5.57,5.57,0,0,0-3.92-1.74,4.7,4.7,0,0,0-4.62,4.94v0a4.73,4.73,0,0,0,4.62,5,5.49,5.49,0,0,0,4-1.82l1.58,1.61a7.26,7.26,0,0,1-5.68,2.48A7,7,0,0,1,381.31,195.7Z"></path><path class="cls-1" d="M400.07,195.7v0a7.32,7.32,0,0,1,14.64,0v0a7.32,7.32,0,0,1-14.64,0Zm12.06,0v0a4.8,4.8,0,0,0-4.76-5,4.73,4.73,0,0,0-4.72,4.94v0a4.8,4.8,0,0,0,4.76,5A4.73,4.73,0,0,0,412.13,195.7Z"></path><path class="cls-1" d="M421.69,188.66h2.62l4.26,6.62,4.26-6.62h2.62v14H433v-10l-4.42,6.6h-.08l-4.38-6.56v10h-2.42Z"></path><path class="cls-1" d="M443.45,188.66H449c3.26,0,5.32,1.86,5.32,4.68v0c0,3.14-2.52,4.78-5.6,4.78h-2.78v4.51h-2.46Zm5.32,7.28c1.86,0,3-1,3-2.5v0c0-1.64-1.18-2.5-3-2.5h-2.86v5Z"></path><path class="cls-1" d="M464.57,188.56h2.28L473,202.67h-2.6L469,199.28h-6.62l-1.44,3.39h-2.52Zm3.52,8.54-2.42-5.6-2.4,5.6Z"></path><path class="cls-1" d="M479,188.66h2.28l7.5,9.68v-9.68h2.42v14h-2.06l-7.72-10v10H479Z"></path><path class="cls-1" d="M502.93,197.14l-5.56-8.48h2.9l3.92,6.2,4-6.2H511l-5.56,8.42v5.59h-2.48Z"></path><path class="cls-1" d="M671,20.27c.86-1.48.53-1.85-.14-2.18-1.3-.64-11.16-5.28-12.66-5.79s-1.84-.2-2.56,1c-1.46,2.41-22.79,39.35-39.81,70.36a32.14,32.14,0,0,0-12.69-2.25c-22.47,0-47,26-51.92,47.1-6.75,6.87-13.74,12.94-17.52,12.94-4.84,0-3-7-2-9.33,4-10,11.47-24.4,13-27.57,3-6.26,6.09-14.71-4.42-18a150.16,150.16,0,0,0-16.74-3.44L526,78.91a1,1,0,0,0-.6-1.51c-2.6-1-3.77-1.52-6.65-2.61-1.28-.48-1.6-.34-2.26.73-6.12,9.8-16.72,29.62-26.94,46.54-8.75,14.5-15.84,19.42-19.06,19.42-4.49,0-3.44-6.11-1.17-11.33,9.14-21,19.08-39.44,20-41.07s.52-1.85-.15-2.18c-1.3-.64-11.58-4.72-13.07-5.22s-1.84-.2-2.57,1l-.53.92a32.53,32.53,0,0,0-12.53-2.18c-21.23,0-44.28,23.23-50.91,43.57-8.11,8.75-16.54,16.5-20.92,16.5s-3.25-6-1.18-11.33c6.61-16.91,27.42-54.21,41.78-79.28,32.42-4.56,65.72-8.45,84.92-8.45,9.7,0,16.78,3.23,17,5,.07.61.54.51,1.38.28,1.41-.38,8.77-3.9,8.89-7.94.13-4.26-11.53-6.61-27.16-6.61-16.11,0-48,4.22-80.16,9.26,5.54-9.59,9.34-16,9.61-16.5.87-1.47.53-1.85-.14-2.18-1.3-.64-11.16-5.28-12.66-5.78s-1.84-.21-2.56,1-7.22,12.36-15.5,26.9c-9.92,1.65-19.52,3.31-28.31,4.86,8-14,14-24.2,14.38-24.79.86-1.47.53-1.85-.14-2.18-1.3-.64-11.17-5.28-12.66-5.78s-1.84-.21-2.57,1c-.95,1.58-9.89,17-20.47,35.65-13.2,2.45-21.9,4.19-22.72,4.49a4.4,4.4,0,0,0-2.62,3.75c-.2,1.39-.16,2.54,1.75,2.19,1-.18,8.32-1.47,19.59-3.35-10,17.75-20.72,37.17-27.27,50.15-10.05,12.11-25.77,29.61-32.35,29.61-4.5,0-3.45-6.11-1.18-11.33,9.14-21,19.08-39.44,20-41.07s.52-1.85-.14-2.18c-1.3-.64-11.58-4.72-13.08-5.22s-1.84-.2-2.56,1c-1.76,2.9-8.6,15.89-14.93,28.76-10,12.11-26.06,30-32.72,30-4.5,0-3.45-6.11-1.18-11.33,9.14-21,19.08-39.44,20-41.07s.52-1.85-.14-2.18c-1.3-.64-11.58-4.72-13.08-5.22s-1.84-.2-2.56,1c-1.62,2.68-7.58,14-13.46,25.78-8.25,14.22-24.08,33-31.51,33-4.5,0-3.45-6.11-1.18-11.33,9.15-21,19.09-39.44,20-41.07s.53-1.85-.14-2.18c-1.3-.64-11.58-4.72-13.07-5.22s-1.85-.2-2.57,1c-1.64,2.72-7.75,14.28-13.72,26.3C190.9,120.4,179,129.42,160.18,141.2c8.1-15.23,16.77-32.23,26.23-51,1.1-2.2,1.43-3-.82-3.87-2.87-1.08-8.6-3.54-11.32-4.49-1.87-.66-2.48-.16-3.65,1.93-14.6,26.13-48.05,63.88-75.86,63.88C78.49,147.61,71,137,71,119.13c0-1.64.09-3.32.26-5,68.78-18.9,136.94-74.81,136.94-98C208.23,4.4,196.82,0,182.33,0,146.7,0,110.48,20.66,84.9,48.05,42.82,61.81,0,85.25,0,104.56c0,7,6.16,15.92,28,15.92a145.73,145.73,0,0,0,21.82-1.74c0,.66-.08,1.33-.1,2-1,32.67,28.57,37.67,35.24,37.67,24.86,0,50.24-20.64,62.44-33.14-4.17,8.93-9.75,20.66-16.23,33.11-37,20.33-86.48,43.32-86.48,66.65,0,13.23,12.41,17.07,21.32,17.07,30.92,0,54.76-28.69,87.56-88.55,16.92-10.07,31.27-20.1,41.24-28.32-7.71,19.85.58,28.44,10.39,28.44,9.13,0,19.95-8.83,28.84-19-2.09,13.17,5,19,13,19,9.87,0,22.23-11.2,32.25-22.49-4,15.62,3.56,22.49,12.32,22.49,9.89,0,22.27-11.24,32.31-22.56-3.9,15.8,3.33,22.56,12.12,22.56,10.05,0,22.69-11.63,32.82-23.14-4.23,16.22,3.07,23.14,12,23.14,8.18,0,18.06-7.69,26.91-16.76.36,10.46,6.16,16.76,15.35,16.76s18.71-8.94,26.7-19.18c-1.82,13.29,6,19.18,14.14,19.18,12.78,0,24.9-11.76,35.84-30.3,6.19-10.5,11.63-19.7,18.49-31.32,3.31.66,7.28,1.46,9,1.92,3.1.81,2,3.48.85,5.73-.47.94-9.24,17.87-11.37,22.37-10.24,21.63-1,31.6,9,31.6,7.81,0,16.55-6.52,24.76-14.6,1,9.16,6.66,14.6,15.2,14.6,9.14,0,18.5-8.74,26.44-18.85-2,13.16,4.78,18.85,12.85,18.85,16.83,0,42.79-29.5,50.19-39.59a5.21,5.21,0,0,0,1-5.25c-.78-2.44-1.6-3.38-3.53-.93-8.06,10.21-31.6,33.59-39.75,33.59-4.49,0-3.24-6-1.18-11.33C622.05,103.75,670.09,21.9,671,20.27ZM105.13,48.86A232,232,0,0,1,139,41.78c2.58-.3,3.71-1.13,2.69-3.38-.94-2.06-2.36-1.91-4.72-1.74a171,171,0,0,0-23.42,3.57C133.64,20.94,158.29,7,181.43,7,185.86,7,195,8.32,195,17.33c0,24.88-63.57,72.22-122.5,89.27C76.55,88.09,88.77,66.91,105.13,48.86ZM50.58,111.48a118.63,118.63,0,0,1-17.78,1.43c-12.29,0-19.56-2.51-19.56-10C13.24,88,43,70.84,76,58.38,62.65,75.28,53.42,93.92,50.58,111.48ZM66,235.06a8.11,8.11,0,0,1-8.08-8.66c.6-20.47,31.65-37.56,67.31-57C107.49,201.79,84.87,235.06,66,235.06Zm311.2-124.35c-10,12.11-26.51,30.77-33.31,30.77-4.5,0-3.25-6-1.18-11.33,6-15.31,23.61-47.35,37.55-71.89,8.62-1.38,18.11-2.86,28-4.34C397.48,73,384.83,95.75,377.21,110.71Zm51.57,31.73c-2.12,0-3.32-2-3.19-6.38C426,123.58,444.12,89.87,462,89.87A20.81,20.81,0,0,1,469,91c-1.33,2.53-4.59,8.83-4.66,9C456.76,114.78,438,142.44,428.78,142.44ZM605.85,102.2c-8.21,15.17-25.6,40.24-34.41,40.24-2.12,0-3.32-2-3.19-6.38.36-12.48,18.53-46.19,36.4-46.19a20.81,20.81,0,0,1,7.17,1.21C610.15,94.15,606.23,101.5,605.85,102.2Z"></path><path class="cls-1" d="M319.47,71.5c5.07,0,10-4.41,10.94-9.91s-2.35-10-7.42-10S313,56,312.05,61.5,314.41,71.47,319.47,71.5Z"></path><path class="cls-1" d="M649.3,139.33a7.17,7.17,0,1,1-7.21,7.13A7.13,7.13,0,0,1,649.3,139.33Zm0,13.28a6.11,6.11,0,1,0-5.91-6.15A5.91,5.91,0,0,0,649.3,152.61Zm-2.79-10.31h3.23c2,0,2.93.79,2.93,2.39a2.14,2.14,0,0,1-2.2,2.28l2.4,3.7h-1.4l-2.28-3.6h-1.38v3.6h-1.3Zm1.3,3.72h1.36c1.15,0,2.2-.06,2.2-1.38,0-1.11-1-1.28-1.84-1.28h-1.72Z"></path></g></g></svg>