<svg version="1.1" viewBox="0 0 512 122.5" width="512" height="122.5" xml:space="preserve" xmlns="http://www.w3.org/2000/svg">
	<g fill="#4f2170">
		<path d="m340.4 118.03s-2.1563 4.3635-6.1377 4.3635c-3.2796 0-7.3142-2.8963-7.4822-7.0873-4e-3 -0.0382-0.0231-6.0693-0.0394-11.112h-1.1129c-0.58252 0-1.6108-0.34625-1.6108-1.861 0-1.5147 1.158-1.8355 1.7312-1.8355h0.98322c-5e-3 -1.7626-7e-3 -2.9739-4e-3 -3.0503 0.10424-2.1725 2.191-4.0034 4.2964-3.8968 1.9814 0.0996 3.9571 1.8158 4.0196 3.8968v3.048h3.5089c0.48526 0 1.6109 0.31731 1.6109 1.861 0 1.5437-1.1256 1.8378-1.7324 1.8378h-3.3873v9.2586c0 3.0028 2.5871 4.5627 5.3664 4.572m-110.89 5e-3s-2.1551 4.3636-6.1377 4.3636c-3.2796 0-7.3142-2.8963-7.4822-7.0873-3e-3 -0.0382-0.0232-6.0693-0.0382-11.112h-1.1129c-0.58249 0-1.612-0.34625-1.612-1.861 0-1.5147 1.1592-1.8355 1.7313-1.8355h0.98319c-5e-3 -1.7626-6e-3 -2.9739-3e-3 -3.0503 0.10423-2.1725 2.191-4.0034 4.2964-3.8968 1.9814 0.0996 3.957 1.8158 4.0208 3.8968v3.048h3.5089c0.48522 0 1.6108 0.31731 1.6108 1.861 0 1.5437-1.1256 1.8378-1.7336 1.8378h-3.3861v9.2586c0 3.0028 2.5871 4.5627 5.3652 4.572m21.162-2.9472s-1.275 1.7475-6.2245 1.7475c-4.9495 0-6.0138-3.847-6.0138-3.847 7.2147 0 13.264-0.48407 13.264-6.3241 0-5.8389-6.5998-7.7647-10.513-7.7647-6.4619 0-11.184 5.1522-11.184 11.955 0 7.6617 6.1481 11.547 11.253 11.547 8.9876 0 9.4184-7.3131 9.4184-7.3131m-12.706-5.8482c0.25245-1.8645 0.70061-4.213 2.3786-5.3004 1.392-0.90443 3.3433 0.12507 3.3723 1.8656 0.0313 1.8401-1.1569 3.092-2.8129 3.4417-0.17486 0.0371-2.9623 0.17717-2.938-7e-3m29.608-9.6894c-2.462 0.10075-3.678 1.9351-5.3537 4.2373-0.0116 0.0185 2e-3 -1.0631 2e-3 -1.1048-0.0649-2.0856-1.993-3.8088-3.9779-3.9084-2.1123-0.10538-4.2026 1.729-4.308 3.9084v15.915h-7e-3c0.0637 2.0868 1.993 3.8112 3.9791 3.9084 2.0914 0.10306 4.1597-1.6989 4.301-3.8482h0.0184l-2e-3 -10.082c0.12507-1.4765 0.7701-3.3236 1.9582-3.3144 1.6815 0.0139-0.0556 4.0821 3.803 4.0821 5.5331 0 6.1238-10.062-0.41226-9.7936m83.959-5.4787c0 2.2663-1.839 4.1041-4.1076 4.1041-2.2709 0-4.1076-1.8378-4.1076-4.1041 0-2.2709 1.8367-4.1111 4.1076-4.1111 2.2686 0 4.1076 1.8401 4.1076 4.1111m0.0313 10.337c-0.0996-2.059-1.7162-3.6745-3.7556-3.847-0.12276-0.0116-0.23509-0.0371-0.35204-0.0371-1.8459 0-4.1678 1.5958-4.1678 3.6131l9e-3 7.6431h-9e-3c0.0255 2.3844-4e-3 6.6912 0 6.7398 0.0984 2.059 1.7174 3.6733 3.7533 3.8447 0.12389 0.0152 0.2339 0.0382 0.3532 0.0382 1.8448 0 4.169-1.5958 4.169-3.612l-9e-3 -6.3866h9e-3c-0.0291-2.3856 4e-3 -7.95 0-7.9964m76.179-2.2234c-0.0649-2.1852-2.1204-3.993-4.2037-4.096-2.2096-0.10886-4.3983 1.8124-4.5094 4.096-4e-3 0.15749-0.0255 0.49795-0.0255 0.55818-1.0434-1.4557-3.3467-3.9142-6.9726-3.9142-9.9778 0-10.611 17.769-3.7671 22.164 1.9316 1.238 4.8406 1.5553 7.041 0.98433 1.2437-0.3254 3.0792-1.3862 3.913-2.7411 0.50837 1.7452 2.2385 3.0735 4.0126 3.1626 2.2107 0.10887 4.4006-1.81 4.5118-4.0926 9e-3 -0.29762 5e-3 -15.922 0-16.121m-12.66 14.298v2e-3h-0.0243-0.0279v-2e-3c-2.2292-0.0336-3.3456-2.271-3.3456-5.9176 0-3.6432 1.414-5.8748 3.3456-5.9165v-2e-3c0.0116 0 0.0176 2e-3 0.0279 2e-3 8e-3 0 0.014-2e-3 0.0243-2e-3v2e-3c1.9316 0.0417 3.3456 2.2733 3.3456 5.9165 0 3.6467-1.1175 5.884-3.3456 5.9176m-93.197-14.299c-0.0672-2.1852-2.125-3.993-4.2026-4.096-2.2118-0.10885-4.4017 1.8124-4.5129 4.096-3e-3 0.15749-0.022 0.49795-0.022 0.55818-1.048-1.4557-3.3468-3.9142-6.975-3.9142-9.9778 0-10.611 17.769-3.7671 22.164 1.9305 1.238 4.8395 1.5553 7.0421 0.98434 1.2438-0.3254 3.0769-1.3862 3.9096-2.7411 0.51184 1.7452 2.2397 3.0734 4.0161 3.1626 2.2107 0.10887 4.4006-1.81 4.5118-4.0925 9e-3 -0.29763 7e-3 -15.922 0-16.121m-12.663 14.298v2e-3h-0.0231-0.0267v-2e-3c-2.2304-0.0336-3.3456-2.2709-3.3456-5.9176 0-3.6432 1.414-5.8748 3.3456-5.9165v-2e-3c0.0105 0 0.0162 2e-3 0.0267 2e-3 7e-3 0 0.0162-2e-3 0.0231-2e-3v2e-3c1.9316 0.0417 3.3491 2.2732 3.3491 5.9165 0 3.6467-1.1198 5.8841-3.3491 5.9176m56.747-17.688c-6.5198 0-11.806 5.283-11.806 11.804 0 6.521 5.2865 11.803 11.806 11.803 6.5175 0 11.805-5.2819 11.805-11.803 0-6.521-5.2876-11.804-11.805-11.804m0.0857 18.594v5e-3c-0.0116 0-0.0185-1e-3 -0.0278-1e-3 -9e-3 0-0.0176 1e-3 -0.0207 1e-3v-5e-3c-2.2316-0.0429-3.3479-2.601-3.3479-6.7897 0-4.1817 1.414-6.7456 3.3479-6.792v-9.9e-4c4e-3 0 0.0116 0 0.0207 9.9e-4 9e-3 -9.9e-4 0.0162-9.9e-4 0.0278-9.9e-4v9.9e-4c1.9281 0.0463 3.3433 2.6102 3.3433 6.792 0 4.1887-1.114 6.7468-3.3433 6.7897m-160.13-17.554c-4.3091 0-6.8615 3.6259-7.5852 4.8117l-0.023 0.0174c-1e-3 -1.1997-5e-3 -2.147-5e-3 -2.1945-0.0637-2.088-1.9942-3.6478-3.9802-3.7451-2.1088-0.10538-4.2037 1.5668-4.3068 3.7451-8e-3 0.28257-8e-3 15.868 0 16.078 0.0637 2.0857 1.9942 3.8088 3.9814 3.9061 2.1088 0.10538 4.1991-1.729 4.3056-3.9061 5e-3 -0.16096 7e-3 -5.2471 5e-3 -9.6269l0.0347-0.0232c0.35553-1.6815 1.3028-3.4012 2.7342-3.4012 1.8517 0 1.9536 2.0602 1.9629 2.0602l-0.0185 10.991c0.0637 2.0856 1.9942 3.8088 3.9802 3.9061 2.1111 0.10539 4.2014-1.729 4.308-3.9061l-0.0127-5.7439c0-5.906 0.61608-12.996-5.3803-12.969m190.09-5e-6c-4.3091 0-6.8615 3.6259-7.5829 4.8117l-0.0243 0.0174c0-1.1997-6e-3 -2.147-6e-3 -2.1945-0.0637-2.088-1.9942-3.6478-3.9791-3.7451-2.11-0.10538-4.2026 1.5668-4.308 3.7451-7e-3 0.28257-7e-3 15.868 0 16.078 0.0637 2.0857 1.9953 3.8088 3.9814 3.9061 2.11 0.10538 4.2003-1.729 4.3057-3.9061 6e-3 -0.16096 8e-3 -5.2471 6e-3 -9.6269l0.0347-0.0232c0.35552-1.6815 1.3028-3.4012 2.733-3.4012 1.8517 0 1.9537 2.0602 1.9629 2.0602l-0.0184 10.991c0.0649 2.0856 1.9953 3.8088 3.9814 3.9061 2.11 0.10539 4.2002-1.729 4.3068-3.9061l-0.0116-5.7439c0-5.906 0.61609-12.996-5.3814-12.969m-105.94-5e-6c-4.3103 0-6.8614 3.6259-7.5841 4.8117l-0.0243 0.0174c0-1.1997-5e-3 -2.147-5e-3 -2.1945-0.0637-2.088-1.9942-3.6479-3.9802-3.7451-2.11-0.10538-4.2026 1.5668-4.3068 3.7451-7e-3 0.28256-7e-3 15.868 0 16.078 0.0637 2.0857 1.9941 3.8088 3.9802 3.9061 2.11 0.10538 4.2002-1.729 4.3068-3.9061 5e-3 -0.16096 7e-3 -5.2471 6e-3 -9.6269l0.0336-0.0232c0.35551-1.6815 1.3039-3.4012 2.733-3.4012 1.8517 0 1.9548 2.0602 1.9629 2.0602l-0.0176 10.991c0.0637 2.0856 1.9941 3.8088 3.9802 3.9061 2.11 0.10539 4.2003-1.729 4.3068-3.9061l-0.0116-5.7439c0-5.906 0.61607-12.996-5.3803-12.969m149.98 18.503c-0.17139-0.70525-0.26405-1.3954-0.30921-2.0938-3e-3 -0.21076 0.0116-25.066 3e-3 -25.361-0.0637-2.0903-1.9953-3.8135-3.9825-3.9131-2.1111-0.10422-4.2014 1.7313-4.3091 3.9131-8e-3 0.28372 0 22.668 0 22.668 0.0195 1.8784-0.16209 3.7996 0.72261 5.5285 0.94266 1.9189 3.2611 3.3977 6.0636 3.3977 2.433 0 3.8725-1.9316 3.8725-1.9316s-1.4198-0.50258-2.0602-2.2072m-262.78-27.233c0.17254 0.7041 0.26287 1.3966 0.30919 2.0926 1e-3 0.21192-0.0127 25.067-9.9e-4 25.365 0.0624 2.088 1.9942 3.8112 3.9802 3.9108 2.1123 0.10538 4.2037-1.7302 4.3091-3.9108 9e-3 -0.28487 0-22.669 0-22.669-0.0185-1.8807 0.16444-3.8019-0.72262-5.5274-0.94034-1.92-3.2611-3.4-6.0624-3.4-2.4331 0-3.8737 1.9316-3.8737 1.9316s1.4209 0.50028 2.0613 2.2072"/>
		<path d="m54.604 81.285c-2.3717 2.1517-5.7961 2.8697-7.9408 3.143-4.3705 0.54545-8.8892-0.90444-11.773-4.3798-2.3682-2.8407-3.5842-6.5164-5.8957-9.4567-3.6513-4.6531-9.4903-7.7011-15.504-6.6241-11.887 2.1563-17.282 16.018-10.561 25.634 9.6072 13.741 31.21 11.363 42.297 1.8425 3.4522-2.9612 6.675-6.2535 9.3779-10.158m402.8-0.0023c2.3764 2.1563 5.7891 2.8731 7.942 3.1441 4.367 0.54892 8.8892-0.89981 11.772-4.3774 2.3671-2.8442 3.5876-6.5164 5.8957-9.4567 3.6583-4.6554 9.4949-7.7022 15.506-6.6241 11.883 2.1528 17.277 16.017 10.552 25.634-9.6026 13.738-31.204 11.362-42.284 1.8436-3.4545-2.9611-6.6854-6.257-9.3837-10.163m-325.04-5.7695c-8.9367-9.7983-11.732-26.093-12.281-36.925-0.47481-9.3559 0.0313-25.561 7.4046-30.277-2.4678-3.1013-7.3374-4.352-11.037-4.352-8.3137 0-12.321 5.5367-15.164 9.5192-0.93919 1.3156-14.917 20.599-14.917 20.599s-11.759-18.191-13.204-20.375c-1.9976-3.0155-5.737-8.5568-12.309-9.5157-2.8303-0.41343-10.172-0.78864-14.169 4.6959 6.8881 5.5112 6.7156 19.547 5.2205 29.129-4.4875 28.763-16.726 31.412-16.726 31.412 6.2686 16.93 22.414 10.242 26.976-3.2576 2.9554-8.7746 4.8627-19.881 5.3027-29.092l17.718 27.178s20.062-27.094 20.062-27.07c-3.3039 47.916 13.151 61.499 27.542 61.499 14.403 0 19.302-13.171 19.302-13.171-7.7868-0.46901-14.602-4.3856-19.722-9.9987m328.44-11.085h-11.049c0.81412 0 8.9877-6.8916 11.698-9.1892 7.0977-6.0242 19.863-14.717 16.142-25.974l9e-3 0.07874c-0.68326-2.6809-2.7469-4.2281-2.7469-4.2281s-0.77241 2.1887-3.3977 3.1684c-1.0712 0.2594-2.1436 0.45511-3.2125 0.51881-0.88244 0.01621-30.884 0-30.884 0-4.0578-0.0058-7.4579 3.2576-7.5146 7.107-0.0463 3.8818 3.1626 6.9958 7.2749 7.0514l17.502 0.11117c-8.1122 4.5245-17.802 9.8828-22.72 18.065-2.8094 4.6959-5.8169 11.936-4.6739 17.489 3.8876-3.4452 14.094-6.7816 21.861-5.1615 2.909 0.60798 6.001 2.0926 8.5152 3.6641 14.568 9.1139 23.324-8.7097 16.36-16.567 0 0-3.9721 3.8667-13.162 3.8667m-36.384-1.4094s-2.8442 3.8969-13.878 3.8969c-11.033 0-13.401-8.5777-13.401-8.5777 16.08 0 29.566-1.077 29.566-14.096 0-13.017-14.713-17.309-23.437-17.309-14.405 0-24.931 11.488-24.931 26.653 0 17.077 13.706 25.737 25.082 25.737 20.037 0 20.998-16.303 20.998-16.303m-28.321-13.033c0.56397-4.1563 1.5599-9.393 5.2981-11.818 3.1036-2.0173 7.4521 0.27909 7.5169 4.1609 0.0718 4.1007-2.5801 6.8927-6.2709 7.6698-0.39142 0.08339-6.5986 0.39374-6.5442-0.01274m-49.259 13.033s-2.8442 3.8969-13.878 3.8969c-11.033 0-13.401-8.5777-13.401-8.5777 16.08 0 29.566-1.077 29.566-14.096 0-13.017-14.713-17.309-23.438-17.309-14.404 0-24.929 11.488-24.929 26.653 0 17.077 13.706 25.737 25.082 25.737 20.037 0 20.998-16.303 20.998-16.303m-28.321-13.033c0.56397-4.1563 1.5599-9.393 5.2969-11.818 3.1047-2.0173 7.4521 0.27909 7.5181 4.1609 0.0706 4.1007-2.5801 6.8927-6.2709 7.6698-0.3914 0.08339-6.5986 0.39374-6.5442-0.01274m-22.134 19.664c-0.40184-1.641-0.61607-3.2565-0.72264-4.8858l0.014-55.067c1e-5 -5.356-4.3404-9.6976-9.6975-9.6976-5.356 0-9.6976 4.3415-9.6976 9.6976l-0.0382 26.082c-2.3323-3.246-7.4706-8.7352-15.565-8.7352-22.271 0-23.678 39.659-8.4052 49.469 4.3056 2.762 10.799 3.473 15.712 2.1968 3.392-0.88475 8.7398-4.2176 9.6003-8.1979 0.12158 0.29183 0.25358 0.5825 0.4018 0.87201 2.198 4.484 7.6166 7.9385 14.167 7.9385 5.6826 0 9.0467-4.5106 9.0467-4.5106s-3.319-1.1731-4.8152-5.1614m-28.9-3.2043v0.0081c-0.0209 0-0.0359-0.0024-0.0544-0.0024-0.022 0-0.0336 0.0024-0.0579 0.0024v-0.0081c-4.9762-0.07412-7.466-5.063-7.466-13.202 0-8.1342 3.1557-13.116 7.466-13.208v-0.0069c0.0243 0 0.0358 0.0069 0.0579 0.0069 0.0185 0 0.0336-0.0069 0.0544-0.0069v0.0069c4.3138 0.0915 7.4706 5.0734 7.4706 13.208 0 8.1388-2.4956 13.128-7.4706 13.202m-110.2-39.82c-14.553 0-26.348 11.794-26.348 26.349 0 14.552 11.795 26.347 26.348 26.347 14.55 0 26.35-11.795 26.35-26.347 0-14.556-11.801-26.349-26.35-26.349m0.1934 41.505v0.01158c-0.0232 0-0.0394-0.0069-0.0578-0.0069-0.0208 0-0.0382 0.0069-0.0544 0.0069v-0.01158c-4.975-0.09033-7.4694-5.8076-7.4694-15.155 0-9.3351 3.1603-15.058 7.4694-15.161v-0.0011c0.0162 0 0.0336 0 0.0544 0.0011 0.0185-0.0011 0.0347-0.0011 0.0578-0.0011v0.0011c4.3033 0.10306 7.4672 5.8262 7.4672 15.161 0 9.3478-2.4898 15.065-7.4672 15.155m216.5 1.5194c-0.40071-1.641-0.61493-3.2565-0.72031-4.8858l0.0162-55.067c3e-5 -5.356-4.3415-9.6976-9.6975-9.6976-5.356 0-9.6976 4.3415-9.6976 9.6976l0.0127 48.768c0.0487 4.3925-0.38332 8.8811 1.6896 12.918 2.1968 4.484 7.6154 7.9385 14.164 7.9385 5.6849 0 9.0467-4.5106 9.0467-4.5106s-3.3178-1.1731-4.814-5.1614m-136.86 0c-0.39719-1.641-0.60795-3.2565-0.72029-4.8858-0.0196-2.3532-0.0196-5.6548-0.0196-8.6947 0.29645-10.497 2.2559-28.963-11.982-28.963-9.6154 0-15.312 8.0913-16.926 10.736-0.23045-7.3757-6.0497-12.727-14.939-12.727-5.671 0-9.0398 4.5141-9.0398 4.5141s5.5332 1.9177 5.5332 9.3513c0.0591 5.3224-9e-3 31.237 0 31.347 0.21654 4.5928 3.4267 8.8985 9.166 8.8985 5.7393 0 9.3015-4.4122 9.3015-8.9066v-22.984c0.79906-3.7567 2.9137-7.5922 6.1006-7.5922 4.1342 0 4.367 4.5975 4.3867 4.5975l-0.0197 22.25c0.0197 0.72379 0.11117 1.4175 0.23625 2.0984 0.20613 1.1604 0.55586 2.2385 1.0596 3.2287 2.2049 4.4817 7.0838 7.4034 13.641 7.4034 5.6664 0 9.0363-4.5106 9.0363-4.5106s-3.3248-1.1731-4.8141-5.1614m180.7-61.655c-0.2976-0.011583-28.671-0.011583-28.934-0.00111-3.1082 0.093804-5.6802 2.9727-5.8273 5.935-0.15751 3.1476 2.5778 6.2686 5.8273 6.4249 0.29994 0.0092 28.673 0.0092 28.934 0 3.1117-0.09497 5.6826-2.9739 5.8285-5.9362 0.15864-3.1488-2.5767-6.2651-5.8285-6.4226"/>
	</g>
</svg>
